# xmcd CD database file
#
# Track frame offsets:
#	150
#	21605
#	35857
#	55434
#	90894
#	107667
#	131051
#	153548
#	170617
#	195642
#	210475
#
# Disc length: 3196 seconds
#
# Revision: 0
# Processed by: cddbd v1.5PL3 Copyright (c) Steve Scherf et al.
# Submitted via: CDex 1.50
#
DISCID=9b0c7a0b
DTITLE=Just The Two Of Us - Variations
DYEAR=1995
DGENRE=Blues
TTITLE0=At Last
TTITLE1=Heaven Is Calling
TTITLE2=Rain
TTITLE3=Route 66
TTITLE4=She's Not A Lady
TTITLE5=Summertime
TTITLE6=Walkin' On A Tightrope
TTITLE7=You Are So Beatiful
TTITLE8=Your Song
TTITLE9=Benson Tune
TTITLE10=Room With A View
EXTD=YEAR: 1995
EXTT0=
EXTT1=
EXTT2=
EXTT3=
EXTT4=
EXTT5=
EXTT6=
EXTT7=
EXTT8=
EXTT9=
EXTT10=
PLAYORDER=
